{
  "accessors": [
    {
      "bufferView": 2,
      "componentType": 5126,
      "count": 24079,
      "max": [
        4.0560197830200195,
        3.3219976425170898,
        2.7015390396118164
      ],
      "min": [
        -3.6052899360656738,
        -2.791043758392334,
        -0.064630851149559021
      ],
      "type": "VEC3"
    },
    {
      "bufferView": 2,
      "byteOffset": 288948,
      "componentType": 5126,
      "count": 24079,
      "max": [
        1,
        1,
        1
      ],
      "min": [
        -1,
        -1,
        -1
      ],
      "type": "VEC3"
    },
    {
      "bufferView": 3,
      "componentType": 5126,
      "count": 24079,
      "max": [
        1,
        1,
        1,
        1
      ],
      "min": [
        -1,
        -1,
        -1,
        -1
      ],
      "type": "VEC4"
    },
    {
      "bufferView": 1,
      "componentType": 5126,
      "count": 24079,
      "max": [
        1.0396344661712646,
        0.99929904937744141
      ],
      "min": [
        -5.1572346687316895,
        -0.088409736752510071
      ],
      "type": "VEC2"
    },
    {
      "bufferView": 0,
      "componentType": 5125,
      "count": 95475,
      "max": [
        24078
      ],
      "min": [
        0
      ],
      "type": "SCALAR"
    },
    {
      "bufferView": 2,
      "byteOffset": 577896,
      "componentType": 5126,
      "count": 64148,
      "max": [
        4.0038714408874512,
        3.2432050704956055,
        2.3517718315124512
      ],
      "min": [
        -3.3314685821533203,
        -2.8271129131317139,
        -0.039952486753463745
      ],
      "type": "VEC3"
    },
    {
      "bufferView": 2,
      "byteOffset": 1347672,
      "componentType": 5126,
      "count": 64148,
      "max": [
        1,
        1,
        1
      ],
      "min": [
        -1,
        -1,
        -1
      ],
      "type": "VEC3"
    },
    {
      "bufferView": 3,
      "byteOffset": 385264,
      "componentType": 5126,
      "count": 64148,
      "max": [
        1,
        1,
        1,
        1
      ],
      "min": [
        -1,
        -1,
        -1,
        -1
      ],
      "type": "VEC4"
    },
    {
      "bufferView": 1,
      "byteOffset": 192632,
      "componentType": 5126,
      "count": 64148,
      "max": [
        0.99999904632568359,
        0.99993431568145752
      ],
      "min": [
        -4.6572346687316895,
        -0.088409736752510071
      ],
      "type": "VEC2"
    },
    {
      "bufferView": 1,
      "byteOffset": 705816,
      "componentType": 5126,
      "count": 64148,
      "max": [
        0.99999904632568359,
        0.99993431568145752
      ],
      "min": [
        -4.6572346687316895,
        -0.088409736752510071
      ],
      "type": "VEC2"
    },
    {
      "bufferView": 1,
      "byteOffset": 1219000,
      "componentType": 5126,
      "count": 64148,
      "max": [
        0.99999904632568359,
        0.99993431568145752
      ],
      "min": [
        -4.6572346687316895,
        -0.088409736752510071
      ],
      "type": "VEC2"
    },
    {
      "bufferView": 0,
      "byteOffset": 381900,
      "componentType": 5125,
      "count": 127416,
      "max": [
        64147
      ],
      "min": [
        0
      ],
      "type": "SCALAR"
    },
    {
      "bufferView": 2,
      "byteOffset": 2117448,
      "componentType": 5126,
      "count": 72,
      "max": [
        3.5059185028076172,
        3.3065767288208008,
        2.0065014362335205
      ],
      "min": [
        -2.4973278045654297,
        2.1366777420043945,
        0.096762418746948242
      ],
      "type": "VEC3"
    },
    {
      "bufferView": 2,
      "byteOffset": 2118312,
      "componentType": 5126,
      "count": 72,
      "max": [
        1,
        1,
        1
      ],
      "min": [
        -1,
        -1,
        -1
      ],
      "type": "VEC3"
    },
    {
      "bufferView": 3,
      "byteOffset": 1411632,
      "componentType": 5126,
      "count": 72,
      "max": [
        1,
        3.4621061786310747e-06,
        1,
        1
      ],
      "min": [
        -1,
        -3.4621061786310747e-06,
        -1,
        1
      ],
      "type": "VEC4"
    },
    {
      "bufferView": 1,
      "byteOffset": 1732184,
      "componentType": 5126,
      "count": 72,
      "max": [
        0.99229335784912109,
        1.0422992706298828
      ],
      "min": [
        -2.3864727020263672,
        0.042299304157495499
      ],
      "type": "VEC2"
    },
    {
      "bufferView": 1,
      "byteOffset": 1732760,
      "componentType": 5126,
      "count": 72,
      "max": [
        0.99229335784912109,
        1.0422992706298828
      ],
      "min": [
        -2.3864727020263672,
        0.042299304157495499
      ],
      "type": "VEC2"
    },
    {
      "bufferView": 0,
      "byteOffset": 891564,
      "componentType": 5125,
      "count": 108,
      "max": [
        71
      ],
      "min": [
        0
      ],
      "type": "SCALAR"
    },
    {
      "bufferView": 2,
      "byteOffset": 2119176,
      "componentType": 5126,
      "count": 48,
      "max": [
        2.4630758762359619,
        -2.7743110656738281,
        2.3413774967193604
      ],
      "min": [
        -2.0676670074462891,
        -2.7765390872955322,
        0.16103541851043701
      ],
      "type": "VEC3"
    },
    {
      "bufferView": 2,
      "byteOffset": 2119752,
      "componentType": 5126,
      "count": 48,
      "max": [
        1,
        1,
        1
      ],
      "min": [
        -1,
        -1,
        -1
      ],
      "type": "VEC3"
    },
    {
      "bufferView": 3,
      "byteOffset": 1412784,
      "componentType": 5126,
      "count": 48,
      "max": [
        1,
        0,
        1,
        1
      ],
      "min": [
        -1,
        0,
        -1,
        1
      ],
      "type": "VEC4"
    },
    {
      "bufferView": 1,
      "byteOffset": 1733336,
      "componentType": 5126,
      "count": 48,
      "max": [
        0.91298878192901611,
        1.0422992706298828
      ],
      "min": [
        -2.3864727020263672,
        0.042299304157495499
      ],
      "type": "VEC2"
    },
    {
      "bufferView": 1,
      "byteOffset": 1733720,
      "componentType": 5126,
      "count": 48,
      "max": [
        0.91298878192901611,
        1.0422992706298828
      ],
      "min": [
        -2.3864727020263672,
        0.042299304157495499
      ],
      "type": "VEC2"
    },
    {
      "bufferView": 0,
      "byteOffset": 891996,
      "componentType": 5125,
      "count": 72,
      "max": [
        47
      ],
      "min": [
        0
      ],
      "type": "SCALAR"
    }
  ],
  "asset": {
    "extras": {
      "author": "cjbarron (https://sketchfab.com/cjbarron)",
      "license": "CC-BY-NC-ND-4.0 (http://creativecommons.org/licenses/by-nc-nd/4.0/)",
      "source": "https://sketchfab.com/3d-models/isometric-room-221b-baker-street-d72ffc510efe48d48bf519612bbaac42",
      "title": "Isometric Room - 221B Baker Street"
    },
    "generator": "Sketchfab-5.89.0",
    "version": "2.0"
  },
  "bufferViews": [
    {
      "buffer": 0,
      "byteLength": 892284,
      "byteOffset": 0,
      "name": "floatBufferViews",
      "target": 34963
    },
    {
      "buffer": 0,
      "byteLength": 1734104,
      "byteOffset": 892284,
      "byteStride": 8,
      "name": "floatBufferViews",
      "target": 34962
    },
    {
      "buffer": 0,
      "byteLength": 2120328,
      "byteOffset": 2626388,
      "byteStride": 12,
      "name": "floatBufferViews",
      "target": 34962
    },
    {
      "buffer": 0,
      "byteLength": 1413552,
      "byteOffset": 4746716,
      "byteStride": 16,
      "name": "floatBufferViews",
      "target": 34962
    }
  ],
  "buffers": [
    {
      "byteLength": 6160268,
      "uri": "scene.bin"
    }
  ],
  "images": [
    {
      "uri": "textures/02_-_Default_baseColor.jpeg"
    },
    {
      "uri": "textures/02_-_Default_metallicRoughness.png"
    },
    {
      "uri": "textures/03_-_Default_baseColor.jpeg"
    },
    {
      "uri": "textures/03_-_Default_emissive.png"
    },
    {
      "uri": "textures/13_-_Default_baseColor.png"
    }
  ],
  "materials": [
    {
      "doubleSided": true,
      "name": "02_-_Default",
      "pbrMetallicRoughness": {
        "baseColorFactor": [
          1,
          1,
          1,
          1
        ],
        "baseColorTexture": {
          "index": 0,
          "texCoord": 0
        },
        "metallicFactor": 0.1834848577,
        "metallicRoughnessTexture": {
          "index": 1,
          "texCoord": 0
        },
        "roughnessFactor": 1
      }
    },
    {
      "doubleSided": true,
      "emissiveFactor": [
        1,
        1,
        1
      ],
      "emissiveTexture": {
        "index": 3,
        "texCoord": 1
      },
      "name": "03_-_Default",
      "pbrMetallicRoughness": {
        "baseColorFactor": [
          1,
          1,
          1,
          1
        ],
        "baseColorTexture": {
          "index": 2,
          "texCoord": 0
        },
        "metallicFactor": 0,
        "roughnessFactor": 0.89297135959999996
      }
    },
    {
      "alphaMode": "BLEND",
      "doubleSided": true,
      "emissiveFactor": [
        0,
        0,
        0
      ],
      "name": "13_-_Default",
      "pbrMetallicRoughness": {
        "baseColorFactor": [
          1,
          1,
          1,
          1
        ],
        "baseColorTexture": {
          "index": 4,
          "texCoord": 0
        },
        "metallicFactor": 0,
        "roughnessFactor": 0.89297135959999996
      }
    },
    {
      "alphaMode": "BLEND",
      "doubleSided": true,
      "name": "14_-_Default",
      "pbrMetallicRoughness": {
        "baseColorFactor": [
          1,
          1,
          1,
          1
        ],
        "baseColorTexture": {
          "index": 4,
          "texCoord": 0
        },
        "metallicFactor": 0,
        "roughnessFactor": 0.89297135959999996
      }
    }
  ],
  "meshes": [
    {
      "name": "ROOM_02 - Default_0",
      "primitives": [
        {
          "attributes": {
            "NORMAL": 1,
            "POSITION": 0,
            "TANGENT": 2,
            "TEXCOORD_0": 3
          },
          "indices": 4,
          "material": 0,
          "mode": 4
        }
      ]
    },
    {
      "name": "ROOM_03 - Default_0",
      "primitives": [
        {
          "attributes": {
            "NORMAL": 6,
            "POSITION": 5,
            "TANGENT": 7,
            "TEXCOORD_0": 8,
            "TEXCOORD_1": 9,
            "TEXCOORD_2": 10
          },
          "indices": 11,
          "material": 1,
          "mode": 4
        }
      ]
    },
    {
      "name": "ROOM_13 - Default_0",
      "primitives": [
        {
          "attributes": {
            "NORMAL": 13,
            "POSITION": 12,
            "TANGENT": 14,
            "TEXCOORD_0": 15,
            "TEXCOORD_1": 16
          },
          "indices": 17,
          "material": 2,
          "mode": 4
        }
      ]
    },
    {
      "name": "ROOM_14 - Default_0",
      "primitives": [
        {
          "attributes": {
            "NORMAL": 19,
            "POSITION": 18,
            "TANGENT": 20,
            "TEXCOORD_0": 21,
            "TEXCOORD_1": 22
          },
          "indices": 23,
          "material": 3,
          "mode": 4
        }
      ]
    }
  ],
  "nodes": [
    {
      "children": [
        1
      ],
      "name": "RootNode (gltf orientation matrix)",
      "rotation": [
        -0.70710678118654746,
        -0,
        -0,
        0.70710678118654757
      ]
    },
    {
      "children": [
        2
      ],
      "matrix": [
        -1,
        0,
        0,
        0,
        0,
        1,
        0,
        0,
        0,
        0,
        -1,
        0,
        7.2758665084838867,
        0,
        -2.6338505744934082,
        1
      ],
      "name": "RootNode (model correction matrix)"
    },
    {
      "children": [
        3
      ],
      "matrix": [
        1,
        0,
        0,
        0,
        0,
        -1,
        0,
        0,
        0,
        0,
        -1,
        0,
        0,
        0,
        0,
        1
      ],
      "name": "5ec2b752cf674ebe95e087806e4a0cff.fbx"
    },
    {
      "children": [
        4
      ],
      "name": "RootNode"
    },
    {
      "children": [
        5,
        6,
        7,
        8
      ],
      "matrix": [
        1,
        0,
        0,
        0,
        0,
        1,
        0,
        0,
        0,
        0,
        1,
        0,
        3.412569522857666,
        -9.7448539733886719,
        -0.0015281476080417633,
        1
      ],
      "name": "ROOM"
    },
    {
      "mesh": 0,
      "name": "ROOM_02 - Default_0"
    },
    {
      "mesh": 1,
      "name": "ROOM_03 - Default_0"
    },
    {
      "mesh": 2,
      "name": "ROOM_13 - Default_0"
    },
    {
      "mesh": 3,
      "name": "ROOM_14 - Default_0"
    }
  ],
  "samplers": [
    {
      "magFilter": 9729,
      "minFilter": 9987,
      "wrapS": 10497,
      "wrapT": 10497
    }
  ],
  "scene": 0,
  "scenes": [
    {
      "name": "OSG_Scene",
      "nodes": [
        0
      ]
    }
  ],
  "textures": [
    {
      "sampler": 0,
      "source": 0
    },
    {
      "sampler": 0,
      "source": 1
    },
    {
      "sampler": 0,
      "source": 2
    },
    {
      "sampler": 0,
      "source": 3
    },
    {
      "sampler": 0,
      "source": 4
    }
  ]
}

